 0
SECTION
 2
HEADER
 0
ENDSEC
 0
SECTION
 2
TABLES
 0
ENDSEC
 0
SECTION
 2
BLOCKS
0
BLOCK
70
0
2
QFN24EP_4X4_STM-L
10
0
20
0
30
0
999
##### Poly 7 ####
0
POLYLINE
5
36
70
1
8
2
6
CONTINUOUS
66
1
10
0
20
0
30
0
39
.039
0
VERTEX
8
2
6
CONTINUOUS
 10
.00234
 20
-.0975
 30
0
0
VERTEX
8
2
6
CONTINUOUS
 10
.00234
 20
-.1075
 30
0
0
VERTEX
8
2
6
CONTINUOUS
 10
.01734
 20
-.1075
 30
0
0
VERTEX
8
2
6
CONTINUOUS
 10
.01734
 20
-.0975
 30
0
0
SEQEND
0
3DFACE
5
49
8
0
6
CONTINUOUS
 10
.00234
 20
-.0975
 30
.039
 11
.00234
 21
-.1075
 31
.039
 12
.01734
 22
-.1075
 32
.039
 13
.01734
 23
-.0975
 33
.039
0
3DFACE
5
49
8
0
6
CONTINUOUS
 10
.00234
 20
-.0975
 30
0
 11
.00234
 21
-.1075
 31
0
 12
.01734
 22
-.1075
 32
0
 13
.01734
 23
-.0975
 33
0
999
##### Poly 20 ####
0
POLYLINE
5
36
70
1
8
2
6
CONTINUOUS
66
1
10
0
20
0
30
0
39
.039
0
VERTEX
8
2
6
CONTINUOUS
 10
.02203
 20
.0975
 30
0
0
VERTEX
8
2
6
CONTINUOUS
 10
.02203
 20
.1075
 30
0
0
VERTEX
8
2
6
CONTINUOUS
 10
.03703
 20
.1075
 30
0
0
VERTEX
8
2
6
CONTINUOUS
 10
.03703
 20
.0975
 30
0
0
SEQEND
0
3DFACE
5
49
8
0
6
CONTINUOUS
 10
.02203
 20
.0975
 30
.039
 11
.02203
 21
.1075
 31
.039
 12
.03703
 22
.1075
 32
.039
 13
.03703
 23
.0975
 33
.039
0
3DFACE
5
49
8
0
6
CONTINUOUS
 10
.02203
 20
.0975
 30
0
 11
.02203
 21
.1075
 31
0
 12
.03703
 22
.1075
 32
0
 13
.03703
 23
.0975
 33
0
999
##### Poly 52 ####
0
POLYLINE
5
36
70
1
8
3
6
CONTINUOUS
66
1
10
0
20
0
30
0
39
.039
0
VERTEX
8
3
6
CONTINUOUS
 10
-.05106
 20
.05106
 30
0
0
VERTEX
8
3
6
CONTINUOUS
 10
-.05106
 20
.00394
 30
0
0
VERTEX
8
3
6
CONTINUOUS
 10
-.00394
 20
.00394
 30
0
0
VERTEX
8
3
6
CONTINUOUS
 10
-.00394
 20
.05106
 30
0
0
SEQEND
0
3DFACE
5
49
8
0
6
CONTINUOUS
 10
-.05106
 20
.05106
 30
.039
 11
-.05106
 21
.00394
 31
.039
 12
-.00394
 22
.00394
 32
.039
 13
-.00394
 23
.05106
 33
.039
0
3DFACE
5
49
8
0
6
CONTINUOUS
 10
-.05106
 20
.05106
 30
0
 11
-.05106
 21
.00394
 31
0
 12
-.00394
 22
.00394
 32
0
 13
-.00394
 23
.05106
 33
0
999
##### Poly 53 ####
0
POLYLINE
5
36
70
1
8
3
6
CONTINUOUS
66
1
10
0
20
0
30
0
39
.039
0
VERTEX
8
3
6
CONTINUOUS
 10
-.05106
 20
-.00394
 30
0
0
VERTEX
8
3
6
CONTINUOUS
 10
-.05106
 20
-.05106
 30
0
0
VERTEX
8
3
6
CONTINUOUS
 10
-.00394
 20
-.05106
 30
0
0
VERTEX
8
3
6
CONTINUOUS
 10
-.00394
 20
-.00394
 30
0
0
SEQEND
0
3DFACE
5
49
8
0
6
CONTINUOUS
 10
-.05106
 20
-.00394
 30
.039
 11
-.05106
 21
-.05106
 31
.039
 12
-.00394
 22
-.05106
 32
.039
 13
-.00394
 23
-.00394
 33
.039
0
3DFACE
5
49
8
0
6
CONTINUOUS
 10
-.05106
 20
-.00394
 30
0
 11
-.05106
 21
-.05106
 31
0
 12
-.00394
 22
-.05106
 32
0
 13
-.00394
 23
-.00394
 33
0
999
##### Poly 54 ####
0
POLYLINE
5
36
70
1
8
3
6
CONTINUOUS
66
1
10
0
20
0
30
0
39
.039
0
VERTEX
8
3
6
CONTINUOUS
 10
.00394
 20
.05106
 30
0
0
VERTEX
8
3
6
CONTINUOUS
 10
.00394
 20
.00394
 30
0
0
VERTEX
8
3
6
CONTINUOUS
 10
.05106
 20
.00394
 30
0
0
VERTEX
8
3
6
CONTINUOUS
 10
.05106
 20
.05106
 30
0
0
SEQEND
0
3DFACE
5
49
8
0
6
CONTINUOUS
 10
.00394
 20
.05106
 30
.039
 11
.00394
 21
.00394
 31
.039
 12
.05106
 22
.00394
 32
.039
 13
.05106
 23
.05106
 33
.039
0
3DFACE
5
49
8
0
6
CONTINUOUS
 10
.00394
 20
.05106
 30
0
 11
.00394
 21
.00394
 31
0
 12
.05106
 22
.00394
 32
0
 13
.05106
 23
.05106
 33
0
999
##### Poly 55 ####
0
POLYLINE
5
36
70
1
8
3
6
CONTINUOUS
66
1
10
0
20
0
30
0
39
.039
0
VERTEX
8
3
6
CONTINUOUS
 10
.00394
 20
-.00394
 30
0
0
VERTEX
8
3
6
CONTINUOUS
 10
.00394
 20
-.05106
 30
0
0
VERTEX
8
3
6
CONTINUOUS
 10
.05106
 20
-.05106
 30
0
0
VERTEX
8
3
6
CONTINUOUS
 10
.05106
 20
-.00394
 30
0
0
SEQEND
0
3DFACE
5
49
8
0
6
CONTINUOUS
 10
.00394
 20
-.00394
 30
.039
 11
.00394
 21
-.05106
 31
.039
 12
.05106
 22
-.05106
 32
.039
 13
.05106
 23
-.00394
 33
.039
0
3DFACE
5
49
8
0
6
CONTINUOUS
 10
.00394
 20
-.00394
 30
0
 11
.00394
 21
-.05106
 31
0
 12
.05106
 22
-.05106
 32
0
 13
.05106
 23
-.00394
 33
0
999
##### Poly 76 ####
0
POLYLINE
5
36
70
1
8
8
6
CONTINUOUS
66
1
10
0
20
0
30
0
39
.039
0
VERTEX
8
8
6
CONTINUOUS
 10
-.0835
 20
-.0835
 30
0
0
VERTEX
8
8
6
CONTINUOUS
 10
-.0835
 20
-.05821
 30
0
0
VERTEX
8
8
6
CONTINUOUS
 10
-.0915
 20
-.05821
 30
0
0
VERTEX
8
8
6
CONTINUOUS
 10
-.0915
 20
.05821
 30
0
0
VERTEX
8
8
6
CONTINUOUS
 10
-.0835
 20
.05821
 30
0
0
VERTEX
8
8
6
CONTINUOUS
 10
-.0835
 20
.0835
 30
0
0
VERTEX
8
8
6
CONTINUOUS
 10
-.05821
 20
.0835
 30
0
0
VERTEX
8
8
6
CONTINUOUS
 10
-.05821
 20
.0915
 30
0
0
VERTEX
8
8
6
CONTINUOUS
 10
.05821
 20
.0915
 30
0
0
VERTEX
8
8
6
CONTINUOUS
 10
.05821
 20
.0835
 30
0
0
VERTEX
8
8
6
CONTINUOUS
 10
.0835
 20
.0835
 30
0
0
VERTEX
8
8
6
CONTINUOUS
 10
.0835
 20
.05821
 30
0
0
VERTEX
8
8
6
CONTINUOUS
 10
.0915
 20
.05821
 30
0
0
VERTEX
8
8
6
CONTINUOUS
 10
.0915
 20
-.05821
 30
0
0
VERTEX
8
8
6
CONTINUOUS
 10
.0835
 20
-.05821
 30
0
0
VERTEX
8
8
6
CONTINUOUS
 10
.0835
 20
-.0835
 30
0
0
VERTEX
8
8
6
CONTINUOUS
 10
.05821
 20
-.0835
 30
0
0
VERTEX
8
8
6
CONTINUOUS
 10
.05821
 20
-.0915
 30
0
0
VERTEX
8
8
6
CONTINUOUS
 10
-.05821
 20
-.0915
 30
0
0
VERTEX
8
8
6
CONTINUOUS
 10
-.05821
 20
-.0835
 30
0
0
SEQEND
999
##### Poly 108 ####
0
POLYLINE
5
36
70
1
8
23
6
CONTINUOUS
66
1
10
0
20
0
30
0
39
.039
0
VERTEX
8
23
6
CONTINUOUS
 10
-.1125
 20
-.1125
 30
0
0
VERTEX
8
23
6
CONTINUOUS
 10
-.1125
 20
.1125
 30
0
0
VERTEX
8
23
6
CONTINUOUS
 10
.1125
 20
.1125
 30
0
0
VERTEX
8
23
6
CONTINUOUS
 10
.1125
 20
-.1125
 30
0
0
SEQEND
0
3DFACE
5
49
8
0
6
CONTINUOUS
 10
-.1125
 20
-.1125
 30
.039
 11
-.1125
 21
.1125
 31
.039
 12
.1125
 22
.1125
 32
.039
 13
.1125
 23
-.1125
 33
.039
0
3DFACE
5
49
8
0
6
CONTINUOUS
 10
-.1125
 20
-.1125
 30
0
 11
-.1125
 21
.1125
 31
0
 12
.1125
 22
.1125
 32
0
 13
.1125
 23
-.1125
 33
0
0
ENDBLK
0
ENDSEC
0
SECTION
2
ENTITIES
 0
INSERT
 8
0
 2
QFN24EP_4X4_STM-L
 10
0
 20
0
 30
0
 41
1
 42
1
 43
1
0
ENDSEC
 0
EOF

